<svg width="32" height="32" viewBox="0 0 32 32" fill="none" xmlns="http://www.w3.org/2000/svg">
<path d="M21.5951 19.9258C21.2848 19.9258 21.0328 20.1773 21.0328 20.4881V20.6008C21.0328 20.9111 21.2848 21.1631 21.5951 21.1631C21.9054 21.1631 22.1574 20.9111 22.1574 20.6008V20.4881C22.1574 20.1778 21.906 19.9258 21.5951 19.9258Z" fill="#2D7AFF"/>
<path d="M16 11.5357C12.5102 11.5357 9.38901 11.1461 7.30917 10.5334L2.56738 24.6959C5.41903 29.0917 10.3698 32 16 32C21.6302 32 26.581 29.0917 29.4326 24.6959L24.6903 10.5334C22.611 11.1461 19.4898 11.5357 16 11.5357ZM24.3488 23.5702C24.2837 23.9343 24.2118 24.3097 24.0028 24.6149C23.5504 25.2763 22.6376 25.3913 21.8381 25.4451C21.3771 25.4762 20.9151 25.5011 20.4536 25.5266C20.013 25.5509 19.1954 25.4094 18.8516 25.7633C18.6353 25.9864 18.6874 26.3862 18.6427 26.6716C18.5934 26.9858 18.5045 27.2916 18.3511 27.5713C18.0538 28.1132 17.6116 28.5736 17.0991 28.9162C16.1982 29.5181 15.1149 29.7842 14.0413 29.9337C13.3709 30.0272 12.9632 29.7678 13 29.0623C13.0351 28.3856 13.1801 27.7169 13.4219 27.0844C13.4541 27.0005 13.6863 26.4943 13.9122 26.0628C14.1025 25.6987 13.9983 25.248 13.6653 25.0073C13.0351 24.5532 12.4853 23.9615 12.1268 23.2859C11.5917 22.2786 11.4343 21.1047 11.3335 19.9847C11.2877 19.4739 11.2435 18.923 10.91 18.5334C10.5595 18.1234 9.98698 18.0051 9.49094 17.7933C8.81257 17.5039 8.01585 16.8947 7.7231 16.1931C7.43828 15.5102 8.13364 14.7429 8.73103 14.5368C9.43545 14.2944 10.2084 14.4541 10.9337 14.6234C11.188 14.6829 11.4621 14.7418 11.7027 14.6404C11.9287 14.5453 12.0753 14.3295 12.2322 14.141C12.748 13.5221 13.5079 13.1127 14.3086 13.0221C14.6874 12.9796 15.1183 13.0266 15.3681 13.3148C15.5736 13.5521 15.6036 13.8924 15.5912 14.2055C15.5544 15.0991 15.2378 15.979 14.6976 16.6914C14.5357 16.9054 14.3448 17.1263 14.3341 17.3947C14.3228 17.6766 14.5198 17.9281 14.7486 18.094C15.2576 18.4626 15.9326 18.5238 16.5561 18.4428C17.1795 18.3624 17.7797 18.1551 18.3969 18.0362C19.5527 17.8131 20.7673 17.906 21.876 18.3012C22.3398 18.4666 22.7933 18.6942 23.1891 18.9881C23.6189 19.3069 23.9807 19.7044 24.2146 20.1846C24.7174 21.2174 24.551 22.4383 24.3488 23.5702Z" fill="#2D7AFF"/>
<path d="M4.66308 8.73443C4.66308 7.51529 7.81314 6.47848 12.2112 6.09287C12.5283 4.28766 14.1042 2.9162 16 2.9162C17.8958 2.9162 19.4717 4.28766 19.7888 6.09287C24.1869 6.47792 27.3369 7.51529 27.3369 8.73443C27.3369 9.25538 26.7622 9.74292 25.7605 10.1608L30.1925 23.3958C31.3477 21.184 32.0006 18.6682 32.0006 16C32 7.16365 24.8364 0 16 0C7.16365 0 0 7.16365 0 16C0 18.6682 0.652888 21.184 1.80804 23.3958L6.24009 10.1603C5.23839 9.74292 4.66308 9.25481 4.66308 8.73443Z" fill="#2D7AFF"/>
</svg>
